<?xml version="1.0" encoding="UTF-8"?>
<svg id="b" data-name="レイヤー 2" xmlns="http://www.w3.org/2000/svg" width="333.66" height="87.78" viewBox="0 0 333.66 87.78">
  <defs>
    <style>
      .d {
        fill: #fff;
      }
    </style>
  </defs>
  <g id="c" data-name="レイヤー 1">
    <g>
      <polygon class="d" points="216.78 41.15 222.06 31.8 215.59 29.41 209.63 41.58 170.84 43.79 171.52 50.34 241.71 46.34 241.03 39.79 216.78 41.15"/>
      <polygon class="d" points="232.6 20.91 208.61 22.35 204.87 13.16 198.23 15.46 201.47 22.78 178.32 24.14 178.84 30.52 233.12 27.2 232.6 20.91"/>
      <polygon class="d" points="181.81 54.09 187.68 87.61 194.4 86.25 188.62 52.98 181.81 54.09"/>
      <polygon class="d" points="194.4 42.09 200.11 39.11 195.17 30.77 189.47 33.5 194.4 42.09"/>
      <polygon class="d" points="192.79 62.42 222.06 59.36 220.86 65.66 194.91 67.19 195.09 72.97 219.76 71.53 218.31 79.27 196.7 77.4 196.19 83.61 223.76 85.99 230.14 52.47 191.77 56.47 192.79 62.42"/>
      <polygon class="d" points="40.24 74.51 40.5 70.59 59.64 69.57 59.39 64.64 40.84 65.57 41.01 63.87 34.03 63.53 33.86 66 22.04 66.59 22.21 71.61 33.52 70.93 33.27 74.85 20.76 75.36 18.72 64.55 12 65.83 13.87 75.61 0 76.21 .26 81.4 32.93 80.03 32.5 87.44 39.39 87.78 39.99 79.69 72.32 78.33 71.98 73.23 40.24 74.51"/>
      <polygon class="d" points="23.65 46.94 24.93 41.58 1.87 42.68 2.21 47.96 23.65 46.94"/>
      <polygon class="d" points="17.36 26.18 15.74 20.74 1.96 21.5 2.21 27.29 17.36 26.18"/>
      <polygon class="d" points="16.34 62.85 22.72 61.57 20.5 49.15 13.95 50.34 16.34 62.85"/>
      <polygon class="d" points="25.01 56.98 24.76 61.66 52.41 62.17 57.17 47.7 23.48 50 24.16 54.77 48.75 52.81 47.3 57.66 25.01 56.98"/>
      <path class="d" d="m56.24,30.43l-19.48,1.19,1.02-4-6.81-.51-1.19,5.02-16.51,1.02.51,5.19,14.8-1.02-2.3,9.53,43.31-2.21-.34-5.1-15.32.68,2.3-9.78Zm-8.85,10.12l-13.02.59,1.11-4.25,13.02-.94-1.11,4.59Z"/>
      <polygon class="d" points="98.24 46.51 84.8 36.99 80.46 42.6 93.82 52.13 98.24 46.51"/>
      <polygon class="d" points="97.39 56.13 80.89 80.88 86.76 84.63 103.26 59.87 97.39 56.13"/>
      <polygon class="d" points="99.44 35.28 103.86 29.84 90.76 19.54 86.25 25.07 99.44 35.28"/>
      <path class="d" d="m154.91,68.97l-18.63.86,2-18.16.12-1.13c-5.48-2.75-5.16-7.99-4.29-12.84l15.44-1.05-.43-7.06-14.22.97.19-1.68.45.05.38-3.49-6.42-.71-.38,3.49.45.05-.29,2.67-22.6,1.54.43,7.06,21.39-1.46c-.09,4.69-1.39,9.17-6.87,10.61l-.12,1.13-2.29,20.8-17.81.82.42,7.06,16.6-.77c-.45,1.81-.02,4.13,2.19,4.35,0,0,11.5,1.27,11.5,1.27,3.41.45,3.06-4.26,3.38-6.4l19.76-.91-.34-7.06Z"/>
      <polygon class="d" points="246.94 78.25 252.72 80.37 258.51 63.7 252.64 61.57 246.94 78.25"/>
      <polygon class="d" points="276.55 30.94 270.85 27.37 262.51 37.67 256.64 28.48 261.4 30.86 270.16 18.52 264.04 15.2 255.96 27.37 254.77 25.41 249.07 28.14 256.38 41.24 261.74 38.69 248.9 54.43 249.75 59.1 269.99 54.34 271.27 58.26 276.8 55.96 271.7 42.26 266.51 44.3 268.21 49.41 258.42 51.7 276.55 30.94"/>
      <polygon class="d" points="260.21 85.65 267.02 85.82 267.61 57.83 260.81 57.66 260.21 85.65"/>
      <polygon class="d" points="269.91 62.59 273.31 76.03 278.84 73.65 275.1 60.38 269.91 62.59"/>
      <path class="d" d="m277.06,45.83l.34,6.38,13.02-.88c-2.57,3.34,4.4,2.89,1.42-.1l30.65-2.08-.25-6.38-45.18,3.06Z"/>
      <polygon class="d" points="291.35 23.37 279.44 24.22 279.95 30.69 291.18 29.84 291.35 23.37"/>
      <polygon class="d" points="305.81 79.35 296.71 78.16 295.94 83.1 312.11 87.78 315.17 52.38 308.28 51.79 305.81 79.35"/>
      <path class="d" d="m302.71,61.81c-.49-4.82-7.15-6.75-10.14-2.95-5.97-4.19-12.63,5.12-6.72,9.41,0,0,8.96,6.78,8.96,6.78,1.57-2.77,8.9-9.64,7.9-13.25Zm-3.94,2.15l-4.65,6.14-6.14-4.65c-1.59-1.11-.88-3.81,1.05-4.01,1.32-.35,3.23,1.77,4.22,2.37.8-.85,2.05-3.4,3.42-3.43,1.91-.33,3.32,2.07,2.09,3.57Z"/>
      <path class="d" d="m293.13,56.06c.39-1.7-2.29-2.27-2.63-.56-.39,1.7,2.29,2.27,2.63.56Z"/>
      <path class="d" d="m327.63,22.27c.35-1.11.26-2.25-.2-3.36h0s-.91-2.44-.91-2.44h0c-2.3-8.73-29.56-13.31-34.48-5.56h0s-1.53,2.12-1.57,2.18h0c-2.42,3.38-.39,6.71,3.45,9.51l-.2,6.99-12.76,10.81,5.19,4.17,11.57-10.46,13.02,8.93,4.34-5.53-14.46-8.25v-.17c4.73-1.26,9.34,2.06,13.71,2.6,14.2,2.65,27.38-2.28,13.3-9.4Z"/>
      <polygon class="d" points="65.17 23.61 64.91 18 63.47 18.08 63.72 23.69 65.17 23.61"/>
      <polygon class="d" points="27.99 29.67 26.89 25.67 41.69 24.9 40.84 28.22 47.39 29.41 48.75 24.48 62.28 23.76 62.03 18.15 50.37 18.78 51.81 13.76 45.09 12.23 43.22 19.2 25.35 20.14 23.4 13.16 16.68 14.52 21.27 31.03 27.99 29.67"/>
      <polygon class="d" points="68.06 23.46 67.81 17.84 66.35 17.92 66.61 23.53 68.06 23.46"/>
      <path class="d" d="m78.24,12.6c-3.27,1.08-5.5,1.39-4.35,4.66C141.54-3.83,207.59,11.36,276.36,0c-67.07,10.83-131.91-6.42-198.11,12.6Z"/>
    </g>
  </g>
</svg>